<svg width="192" height="192" viewBox="0 0 192 192" fill="none" xmlns="http://www.w3.org/2000/svg">
  <rect width="192" height="192" rx="42" fill="#D86B2B"/>
  <rect x="22" y="24" width="148" height="144" rx="32" fill="#FFF7EC" stroke="#17110D" stroke-width="8"/>
  <path d="M58 115c8 20 25 31 46 31 27 0 49-22 49-49 0-9-2-17-7-25-4 30-27 49-56 49-12 0-23-2-32-6Z" fill="#17110D"/>
  <path d="M55 75c19-22 44-32 75-30" stroke="#17110D" stroke-width="10" stroke-linecap="round"/>
  <circle cx="72" cy="83" r="8" fill="#D86B2B"/>
  <circle cx="102" cy="73" r="8" fill="#D86B2B"/>
  <circle cx="132" cy="72" r="8" fill="#D86B2B"/>
  <text x="96" y="56" text-anchor="middle" font-family="Arial, sans-serif" font-size="28" font-weight="900" fill="#17110D">CNG</text>
</svg>
